# MagicaVoxel @ Ephtracy

# material
mtllib castle.mtl
usemtl palette

# normals
vn -1 0 0
vn 1 0 0
vn 0 0 1
vn 0 0 -1
vn 0 -1 0
vn 0 1 0

# texcoords
vt 0.416016 0.5
vt 0.642578 0.5
vt 0.755859 0.5

# verts
v 4 7 -19
v 4 7 -36
v 4 27 -19
v 4 27 -36
v 5 0 -5
v 5 0 -12
v 5 8 -5
v 5 8 -12
v 15 0 2
v 15 0 -5
v 15 0 -12
v 15 0 -23
v 15 7 -19
v 15 7 -23
v 15 8 -5
v 15 8 -12
v 15 27 -19
v 15 27 -23
v 15 29 2
v 15 29 -23
v 34 0 2
v 34 0 -23
v 34 7 -19
v 34 7 -23
v 34 27 -19
v 34 27 -23
v 34 29 2
v 34 29 -23
v 47 7 -19
v 47 7 -36
v 47 27 -19
v 47 27 -36
v 15 0 2
v 15 29 2
v 34 0 2
v 34 29 2
v 5 0 -5
v 5 8 -5
v 15 0 -5
v 15 8 -5
v 4 7 -19
v 4 27 -19
v 15 7 -19
v 15 27 -19
v 34 7 -19
v 34 27 -19
v 47 7 -19
v 47 27 -19
v 5 0 -12
v 5 8 -12
v 15 0 -12
v 15 8 -12
v 15 0 -23
v 15 7 -23
v 15 27 -23
v 15 29 -23
v 34 0 -23
v 34 7 -23
v 34 27 -23
v 34 29 -23
v 4 7 -36
v 4 27 -36
v 47 7 -36
v 47 27 -36
v 15 0 2
v 34 0 2
v 5 0 -5
v 15 0 -5
v 5 0 -12
v 15 0 -12
v 15 0 -23
v 34 0 -23
v 4 7 -19
v 15 7 -19
v 34 7 -19
v 47 7 -19
v 15 7 -23
v 34 7 -23
v 4 7 -36
v 47 7 -36
v 5 8 -5
v 15 8 -5
v 5 8 -12
v 15 8 -12
v 4 27 -19
v 15 27 -19
v 34 27 -19
v 47 27 -19
v 15 27 -23
v 34 27 -23
v 4 27 -36
v 47 27 -36
v 15 29 2
v 34 29 2
v 15 29 -23
v 34 29 -23

# faces
f 3/2/1 2/2/1 1/2/1
f 4/2/1 2/2/1 3/2/1
f 7/3/1 6/3/1 5/3/1
f 8/3/1 6/3/1 7/3/1
f 13/1/1 12/1/1 11/1/1
f 14/1/1 12/1/1 13/1/1
f 15/1/1 10/1/1 9/1/1
f 16/1/1 13/1/1 11/1/1
f 17/1/1 13/1/1 16/1/1
f 17/1/1 16/1/1 15/1/1
f 19/1/1 15/1/1 9/1/1
f 19/1/1 18/1/1 17/1/1
f 19/1/1 17/1/1 15/1/1
f 20/1/1 18/1/1 19/1/1
f 21/1/2 22/1/2 23/1/2
f 23/1/2 22/1/2 24/1/2
f 21/1/2 23/1/2 25/1/2
f 21/1/2 25/1/2 27/1/2
f 25/1/2 26/1/2 27/1/2
f 27/1/2 26/1/2 28/1/2
f 29/2/2 30/2/2 31/2/2
f 31/2/2 30/2/2 32/2/2
f 35/1/3 34/1/3 33/1/3
f 36/1/3 34/1/3 35/1/3
f 39/3/3 38/3/3 37/3/3
f 40/3/3 38/3/3 39/3/3
f 43/2/3 42/2/3 41/2/3
f 44/2/3 42/2/3 43/2/3
f 47/2/3 46/2/3 45/2/3
f 48/2/3 46/2/3 47/2/3
f 49/3/4 50/3/4 51/3/4
f 51/3/4 50/3/4 52/3/4
f 53/1/4 54/1/4 57/1/4
f 57/1/4 54/1/4 58/1/4
f 55/1/4 56/1/4 59/1/4
f 59/1/4 56/1/4 60/1/4
f 61/2/4 62/2/4 63/2/4
f 63/2/4 62/2/4 64/2/4
f 68/1/5 66/1/5 65/1/5
f 69/3/5 68/3/5 67/3/5
f 70/1/5 66/1/5 68/1/5
f 70/3/5 68/3/5 69/3/5
f 71/1/5 66/1/5 70/1/5
f 72/1/5 66/1/5 71/1/5
f 77/2/5 74/2/5 73/2/5
f 78/2/5 76/2/5 75/2/5
f 79/2/5 77/2/5 73/2/5
f 79/2/5 78/2/5 77/2/5
f 80/2/5 76/2/5 78/2/5
f 80/2/5 78/2/5 79/2/5
f 81/3/6 82/3/6 83/3/6
f 83/3/6 82/3/6 84/3/6
f 85/2/6 86/2/6 89/2/6
f 87/2/6 88/2/6 90/2/6
f 85/2/6 89/2/6 91/2/6
f 89/2/6 90/2/6 91/2/6
f 90/2/6 88/2/6 92/2/6
f 91/2/6 90/2/6 92/2/6
f 93/1/6 94/1/6 95/1/6
f 95/1/6 94/1/6 96/1/6
